<?xml version="1.0" encoding="UTF-8"?>
<svg id="Layer_1" data-name="Layer 1" xmlns="http://www.w3.org/2000/svg" xmlns:xlink="http://www.w3.org/1999/xlink" viewBox="0 0 1728 1117">
  <defs>
    <style>
      .cls-1, .cls-2 {
        fill: none;
      }

      .cls-3 {
        clip-path: url(#clippath);
      }

      .cls-4 {
        fill: #010101;
      }

      .cls-5 {
        fill: #fff;
      }

      .cls-6 {
        clip-path: url(#clippath-1);
      }

      .cls-7 {
        clip-path: url(#clippath-3);
      }

      .cls-8 {
        clip-path: url(#clippath-2);
      }

      .cls-9 {
        fill: #6f7272;
        isolation: isolate;
        opacity: .5;
      }

      .cls-10 {
        fill: url(#linear-gradient);
        fill-opacity: .37;
      }

      .cls-2 {
        stroke: #010101;
      }
    </style>
    <clipPath id="clippath">
      <rect class="cls-1" width="1728" height="1117"/>
    </clipPath>
    <clipPath id="clippath-1">
      <rect class="cls-1" y="-10" width="1728" height="1127"/>
    </clipPath>
    <linearGradient id="linear-gradient" x1="-697.83" y1="7878.16" x2="-697.83" y2="7053.16" gradientTransform="translate(1694 7488) scale(1 -1)" gradientUnits="userSpaceOnUse">
      <stop offset="0" stop-color="#81beb0"/>
      <stop offset="1" stop-color="#a5ddef"/>
    </linearGradient>
    <clipPath id="clippath-2">
      <rect class="cls-1" x="838" y="664" width="750" height="283"/>
    </clipPath>
    <clipPath id="clippath-3">
      <rect class="cls-1" y="-10" width="1728" height="1127"/>
    </clipPath>
  </defs>
  <g class="cls-3">
    <g>
      <rect class="cls-5" width="1728" height="1117"/>
      <g class="cls-6">
        <g>
          <path class="cls-5" d="m1728-10H-2v1252h1730V-10Z"/>
          <path class="cls-10" d="m1726.96-10H0v749.63c0,283.4,1129.84-349.22,1726.96,0,597.1,349.22,0-749.63,0-749.63Z"/>
          <path class="cls-2" d="m1727.5-9.5H-1.5v1251h1729V-9.5Z"/>
          <g class="cls-8">
            <path class="cls-1" d="m1588,664h-750v283h750v-283Z"/>
          </g>
          <rect class="cls-2" x="915.5" y="964.5" width="407" height="57" rx="19.5" ry="19.5"/>
          <path class="cls-9" d="m937,992h7v1h-7v-1Zm0,7h9v1h-10v-14h9v1h-8v12Zm17.85-10.1c.82,0,1.54.17,2.15.52.63.34,1.12.85,1.46,1.55.36.7.54,1.58.54,2.64v6.39h-2v-5.96c0-1.11-.29-1.94-.86-2.5-.56-.57-1.35-.86-2.37-.86-.76,0-1.43.15-2.01.46-.56.29-1,.73-1.31,1.3-.3.56-.45,1.24-.45,2.04v5.52h-1v-11h2v3.02l-.21-.57c.32-.8.83-1.42,1.54-1.86.7-.46,1.55-.69,2.52-.69Zm11.01,10.91c-.99,0-1.75-.27-2.28-.8-.53-.53-.8-1.29-.58-2.26v-9.75h1v9.67c.2.61.35,1.09.66,1.42.32.33.77.5,1.36.5.63,0,1.15-.18,1.56-.54l.5,1.02c-.28.25-.62.44-1.02.56-.39.12-.79.18-1.2.18Zm-4.86-9.81v-1h7v1h-7Zm14.21,9.98c-1.11,0-2.09-.23-2.93-.68-.84-.47-1.5-1.1-1.98-1.9-.47-.81-.71-1.74-.71-2.78s.22-1.96.67-2.76c.46-.8,1.09-1.43,1.87-1.88.8-.47,1.7-.7,2.69-.7s1.89.23,2.67.68c.79.44,1.4,1.07,1.85,1.88.45.8.67,1.73.67,2.78,0,.07,0,.14-.02.22v.16h-10v-1h9.23l-.57.42c0-.76-.17-1.43-.51-2.02-.33-.6-.77-1.07-1.34-1.4s-1.23-.5-1.98-.5-1.39.17-1.98.5c-.58.33-1.04.8-1.36,1.4-.33.6-.49,1.29-.49,2.06v.22c0,.8.18,1.51.53,2.12.37.6.87,1.07,1.51,1.42.65.33,1.39.5,2.22.5.65,0,1.26-.11,1.81-.34.57-.23,1.06-.57,1.47-1.04l.81.92c-.47.56-1.07.99-1.79,1.28-.71.29-1.49.44-2.34.44Zm7.79.02v-11h1v3.07l-.42-.5c.29-.8.79-1.41,1.48-1.82.69-.43,1.55-.64,2.94-.64v1.89h-.52s-.11-.53-.16-.53c-1.11,0-1.97.34-2.6,1.02-.63.67-.94,1.62-.72,2.86v5.65h-1Zm18.04-.19c-.91,0-1.73-.21-2.46-.62-.73-.43-1.32-1.03-1.76-1.82-.43-.8-.64-1.77-.64-2.92s.21-2.11.64-2.9c.43-.8,1.01-1.41,1.74-1.82.73-.41,1.56-.62,2.48-.62,1,0,1.89.23,2.68.68.8.44,1.43,1.07,1.88,1.88.45.8.68,1.73.68,2.78s-.23,2-.68,2.8c-.45.8-1.08,1.43-1.88,1.88-.79.45-1.68.68-2.68.68Zm-5.04,3.19v-14h1v3.37l-.16,2.1,1.16,2.12v6.41h-2Zm4.94-4.45c.75,0,1.41-.17,2-.5.59-.35,1.05-.83,1.4-1.44.35-.63.52-1.35.52-2.16s-.17-1.53-.52-2.14c-.35-.61-.81-1.09-1.4-1.44-.59-.35-1.25-.52-2-.52s-1.42.17-2.02.52c-.59.35-1.05.83-1.4,1.44-.33.61-.5,1.33-.5,2.14s.17,1.53.5,2.16c.35.61.81,1.09,1.4,1.44.6.33,1.27.5,2.02.5Zm8.06,1.45v-11h1v11h-1Zm.9-13.11c-.3,0-.54-.1-.74-.3s-.3-.44-.3-.72.1-.51.3-.7c.2-.2.44-.3.74-.3s.54.09.74.28c.2.19.3.42.3.7s-.1.54-.3.74c-.19.2-.44.3-.74.3Zm9.94,2.01c.82,0,1.54.17,2.15.52.63.34,1.12.85,1.46,1.55.36.7.54,1.58.54,2.64v6.39h-1v-5.96c0-1.11-.29-1.94-.86-2.5-.56-.57-1.35-.86-2.37-.86-.77,0-1.43.15-2.01.46-.56.29-1,.73-1.31,1.3-.31.56-.45,1.24-.45,2.04v5.52h-1v-11h1v3.02l-.21-.57c.32-.8.83-1.42,1.54-1.86.7-.46,1.54-.69,2.52-.69Zm18.97.39c.82,0,1.55.17,2.17.51.63.32,1.12.82,1.47,1.5.36.67.54,1.52.54,2.55v6.17h-1v-5.96c0-1.11-.29-1.94-.86-2.5-.56-.57-1.35-.86-2.37-.86-.77,0-1.43.15-2.01.46-.56.29-1,.73-1.31,1.3-.31.56-.45,1.24-.45,2.04v5.52h-1v-15h1v7.3l-.27-.55c.32-.77.83-1.37,1.55-1.8.71-.44,1.55-.67,2.54-.67Zm12.4,10.69c-1.11,0-2.09-.23-2.93-.68-.83-.47-1.5-1.1-1.98-1.9-.47-.81-.71-1.74-.71-2.78s.22-1.96.67-2.76c.47-.8,1.09-1.43,1.87-1.88.8-.47,1.7-.7,2.69-.7s1.89.23,2.67.68c.79.44,1.4,1.07,1.85,1.88.45.8.67,1.73.67,2.78,0,.07,0,.14-.02.22v.16h-9v-1h8.23l-.57.42c0-.76-.16-1.43-.51-2.02-.33-.6-.77-1.07-1.34-1.4-.57-.33-1.22-.5-1.98-.5s-1.38.17-1.98.5c-.58.33-1.04.8-1.36,1.4-.33.6-.49,1.29-.49,2.06v.22c0,.8.18,1.51.53,2.12.37.6.88,1.07,1.51,1.42.65.33,1.39.5,2.22.5.65,0,1.26-.11,1.81-.34.57-.23,1.06-.57,1.47-1.04l.81.92c-.47.56-1.07.99-1.79,1.28-.7.29-1.49.44-2.34.44Zm7.79.02v-11h1v3.07l.1-.5c.3-.8.79-1.41,1.48-1.82.7-.43,1.56-.64,2.42-.64v1.89h0s-.1-.53-.16-.53c-1.1,0-1.97.34-2.6,1.02-.62.67-.94,1.62-1.24,2.86v5.65h-1Zm12.21-.02c-1.12,0-2.1-.23-2.93-.68-.84-.47-1.51-1.1-1.98-1.9-.48-.81-.71-1.74-.71-2.78s.22-1.96.67-2.76c.46-.8,1.08-1.43,1.87-1.88.79-.47,1.69-.7,2.69-.7s1.89.23,2.67.68c.78.44,1.4,1.07,1.85,1.88.45.8.67,1.73.67,2.78,0,.07-.01.14-.02.22v.16h-9v-1h8.23l-.57.42c0-.76-.17-1.43-.51-2.02-.33-.6-.77-1.07-1.34-1.4-.57-.33-1.23-.5-1.98-.5s-1.39.17-1.98.5c-.59.33-1.04.8-1.36,1.4-.33.6-.49,1.29-.49,2.06v.22c0,.8.17,1.51.53,2.12.37.6.87,1.07,1.51,1.42.65.33,1.38.5,2.22.5.65,0,1.25-.11,1.81-.34.57-.23,1.06-.57,1.47-1.04l.81.92c-.48.56-1.08.99-1.79,1.28-.71.29-1.49.44-2.34.44Zm7.66-.17c-.3,0-.55-.11-.76-.32-.2-.21-.3-.47-.3-.78s.1-.58.3-.78c.21-.2.46-.3.76-.3s.54.1.74.3c.21.2.32.46.32.78s-.11.57-.32.78c-.2.21-.45.32-.74.32Zm4.23,0c-.29,0-.54-.11-.76-.32-.2-.21-.3-.47-.3-.78s.1-.58.3-.78c.22-.2.47-.3.76-.3s.54.1.74.3c.22.2.32.46.32.78s-.1.57-.32.78c-.2.21-.44.32-.74.32Zm4.24,0c-.29,0-.54-.11-.76-.32-.2-.21-.3-.47-.3-.78s.1-.58.3-.78c.22-.2.47-.3.76-.3s.54.1.74.3c.22.2.32.46.32.78s-.1.57-.32.78c-.2.21-.44.32-.74.32Zm4.24,0c-.29,0-.55-.11-.76-.32-.2-.21-.3-.47-.3-.78s.1-.58.3-.78c.21-.2.47-.3.76-.3s.54.1.74.3c.21.2.32.46.32.78s-.11.57-.32.78c-.2.21-.45.32-.74.32Z"/>
          <path class="cls-4" d="m1367.8,999.83c-1.04,0-2.04-.17-3-.5-.95-.35-1.68-.79-2.2-1.32l.58-1.14c.49.48,1.15.89,1.98,1.22.84.32,1.72.48,2.64.48s1.59-.11,2.14-.32c.56-.23.97-.53,1.22-.9.27-.37.4-.79.4-1.24,0-.55-.16-.99-.48-1.32-.31-.33-.71-.59-1.22-.78-.51-.2-1.07-.37-1.68-.52-.61-.15-1.23-.3-1.84-.46-.61-.17-1.18-.4-1.7-.68-.51-.28-.92-.65-1.24-1.1-.31-.47-.46-1.07-.46-1.82,0-.69.18-1.33.54-1.9.37-.59.94-1.05,1.7-1.4.76-.36,1.73-.54,2.92-.54.79,0,1.57.11,2.34.34.77.21,1.44.51,2,.9l-.5,1.18c-.6-.4-1.24-.69-1.92-.88-.67-.19-1.31-.28-1.94-.28-.84,0-1.53.11-2.08.34-.55.23-.95.53-1.22.92-.25.37-.38.8-.38,1.28,0,.55.15.99.46,1.32.32.33.73.59,1.24.78.52.19,1.09.35,1.7.5.61.15,1.22.31,1.82.48.61.17,1.17.4,1.68.68.52.27.93.63,1.24,1.08.32.45.48,1.05.48,1.78,0,.68-.19,1.31-.56,1.9-.37.57-.95,1.04-1.72,1.4-.76.35-1.74.52-2.94.52Zm12.52.28c-.87,0-1.63-.17-2.28-.52-.64-.35-1.15-.87-1.52-1.57-.35-.7-.53-1.57-.53-2.62v-6.39h1v5.94c0,1.12.29,1.97.85,2.54.58.56,1.39.84,2.43.84.77,0,1.42-.15,1.97-.44.57-.31,1-.75,1.29-1.32.31-.57.46-1.26.46-2.06v-5.5h1v11h-1v-3.02l.21.54c-.32.81-.83,1.45-1.52,1.91-.67.45-1.46.67-2.37.67Zm14.48-.3c-.92,0-1.74-.21-2.48-.62-.73-.43-1.31-1.04-1.74-1.84-.42-.8-.64-1.77-.64-2.9s.22-2.11.64-2.9c.44-.8,1.03-1.41,1.76-1.82.74-.41,1.56-.62,2.46-.62,1,0,1.9.23,2.68.68.8.44,1.43,1.06,1.88,1.86.46.8.68,1.73.68,2.8s-.22,1.99-.68,2.8c-.45.8-1.08,1.43-1.88,1.88-.78.45-1.68.68-2.68.68Zm-4.8.19v-15h0v7.31l.6,2.12.4,2.12v3.45h-1Zm4.7-1.45c.75,0,1.42-.17,2-.5.59-.35,1.06-.83,1.4-1.44.35-.63.52-1.35.52-2.16s-.17-1.55-.52-2.16c-.34-.61-.81-1.09-1.4-1.42-.58-.35-1.25-.52-2-.52s-1.42.17-2.02.52c-.58.33-1.05.81-1.4,1.42-.33.61-.5,1.33-.5,2.16s.17,1.53.5,2.16c.35.61.82,1.09,1.4,1.44.6.33,1.28.5,2.02.5Zm21.06-9.65c.85,0,1.59.17,2.22.52.64.34,1.13.85,1.48,1.55.36.7.54,1.58.54,2.64v6.39h-1v-5.96c0-1.11-.29-1.94-.86-2.5-.56-.57-1.35-.86-2.38-.86-.77,0-1.44.15-2.01.46-.56.29-1,.73-1.31,1.3-.3.56-.45,1.24-.45,2.04v5.52h-1v-5.96c0-1.11-.29-1.94-.85-2.5-.58-.57-1.37-.86-2.39-.86-.76,0-1.42.15-1.98.46-.58.29-1.01.73-1.32,1.3-.3.56-.45,1.24-.45,2.04v5.52h-1v-11h1v2.98l-.22-.52c.32-.8.83-1.42,1.54-1.86.72-.46,1.56-.69,2.54-.69s1.9.27,2.62.82c.72.53,1.18,1.33,1.4,2.41l-.56-.23c.3-.89.84-1.61,1.62-2.16.78-.56,1.72-.84,2.82-.84Zm8.24,11.1v-11h1v11h-1Zm.87-13.11c-.3,0-.54-.1-.74-.3-.2-.2-.3-.44-.3-.72s.1-.51.3-.7c.2-.2.44-.3.74-.3s.54.09.74.28c.2.19.3.42.3.7s-.1.54-.3.74c-.19.2-.44.3-.74.3Zm7.97,12.92c-.99,0-1.75-.27-2.28-.8-.53-.53-.8-1.29-.56-2.26v-9.75h1v9.67c.18.61.33,1.09.64,1.42.32.33.77.5,1.36.5.63,0,1.15-.18,1.56-.54l.5,1.02c-.28.25-.62.44-1.02.56-.39.12-.79.18-1.2.18Zm-4.84-9.81v-1h7v1h-7Z"/>
          <path class="cls-2" d="m1370.66,964.5h58c15.74,0,28.5,12.76,28.5,28.5h0c0,15.74-12.76,28.5-28.5,28.5h-58c-15.74,0-28.5-12.76-28.5-28.5h0c0-15.74,12.76-28.5,28.5-28.5Z"/>
        </g>
      </g>
      <g class="cls-7">
        <g>
          <path class="cls-5" d="m1728-10H-2v1252h1730V-10Z"/>
          <path class="cls-10" d="m1726.96-10H0v749.63c0,283.4,1129.84-349.22,1726.96,0,597.1,349.22,0-749.63,0-749.63Z"/>
          <path class="cls-2" d="m1727.5-9.5H-1.5v1251h1729V-9.5Z"/>
        </g>
      </g>
    </g>
  </g>
</svg>